<?xml version="1.0" encoding="utf-8"?>
<!-- Generator: Adobe Illustrator 24.2.3, SVG Export Plug-In . SVG Version: 6.00 Build 0)  -->
<svg version="1.1" id="Layer_1" xmlns="http://www.w3.org/2000/svg" xmlns:xlink="http://www.w3.org/1999/xlink" x="0px" y="0px"
	 viewBox="0 0 699 127.4" style="enable-background:new 0 0 699 127.4;" xml:space="preserve">
<style type="text/css">
	.st0{fill:#59595B;}
	.st1{fill:#F15354;}
	.st2{fill:#0575A7;}
</style>
<g id="Layer_2_1_">
	<g id="Layer_1-2">
		<path class="st0" d="M293.6,1.2h28.6c13.6,0,22.7,6.6,22.7,19.3c0,10.4-7.1,16.6-14,18.8c2,1.8,3.7,4.1,4.8,6.6
			c2.9,5.8,4.8,12.3,10.9,12.3c0.9,0,1.9-0.2,2.8-0.5l-1.3,12.2c-2.3,0.5-4.6,0.8-6.9,0.9c-8.2,0-12.9-3.2-17.7-14.2
			c-2-4.9-4.9-13.6-8.7-13.6h-3.9v27.4h-17.2V1.2z M310.8,13.7v17h6.2c4.9,0,10.7-1.5,10.7-8.9c0-6.1-3.9-8.1-8.6-8.1L310.8,13.7
			L310.8,13.7z"/>
		<path class="st0" d="M368.1,1.2h17.4l23.4,69.3h-17.4l-4.3-13.2H364l-4.2,13.2h-15L368.1,1.2z M368.1,44.7H383l-4.7-14.6
			c-1.1-3.9-1.9-7.9-2.4-11.9h-0.4c-0.6,4-1.4,7.9-2.6,11.8L368.1,44.7z"/>
		<path class="st0" d="M409.6,1.2H428l18.2,34.4c1.5,3,3.6,8.2,5.2,12.3h0.4c-0.2-3.9-0.7-9.5-0.7-13.5V1.2h14.1v69.3h-18
			l-18.9-34.3c-1.9-3.7-3.6-7.4-5-11.3h-0.4c0.3,3.9,0.8,8.5,0.8,12.3v33.3h-14.2V1.2z"/>
		<path class="st0" d="M468.8,35.4c0-25.1,12.4-35.4,31.6-35.4c20.2,0,28.4,11.1,26.1,26.1l-16,1.4c1.8-11-2.6-15.4-10.4-15.4
			c-7.5,0-13.6,5.6-13.6,23.4c0,18.9,6.6,23.7,14.1,23.7c7.1,0,12.8-4.4,11.6-13.5l15,1.5c1.1,14.1-9,24.4-27.5,24.4
			C481,71.8,468.9,60.7,468.8,35.4"/>
		<polygon class="st0" points="532.8,1.2 549.9,1.2 549.9,27.4 571,27.4 571,1.2 588.1,1.2 588.1,70.6 571,70.6 571,41.2 
			549.9,41.2 549.9,70.6 532.8,70.6 		"/>
		<polygon class="st0" points="593,1.2 638.9,1.2 638.9,14 610.2,14 610.2,28.9 634.3,28.9 634.3,41.6 610.2,41.6 610.2,57.8 
			639.9,57.8 639.9,70.6 593,70.6 		"/>
		<path class="st0" d="M643.2,1.2h28.5c13.6,0,22.7,6.6,22.7,19.3c0,10.4-7.1,16.6-14,18.8c2,1.8,3.7,4.1,4.8,6.6
			c2.9,5.8,4.8,12.3,10.9,12.3c0.9,0,1.9-0.2,2.8-0.5l-1.3,12.2c-2.3,0.5-4.6,0.8-6.9,0.9c-8.2,0-12.9-3.2-17.8-14.2
			c-2-4.9-4.9-13.6-8.7-13.6h-3.9v27.4h-17.1V1.2z M660.4,13.7v17h6.2c4.9,0,10.7-1.5,10.7-8.9c0-6.1-3.9-8.1-8.6-8.1L660.4,13.7
			L660.4,13.7z"/>
		<path class="st0" d="M293.6,92h21.2v3h-17.9v12.6h16.6v3h-16.7v16.8h-3.3V92z"/>
		<path class="st0" d="M326.4,92h21.6v3h-18.4v12.6h17.2v3h-17.2v13.8h19.1v3h-22.4V92z"/>
		<path class="st0" d="M360.6,92h11c2.6-0.1,5.3,0.3,7.8,1.1c1.9,0.6,3.7,1.6,5.3,2.9c1.3,1.1,2.5,2.4,3.4,3.9
			c0.8,1.3,1.4,2.6,1.8,4.1c0.3,1.2,0.6,2.3,0.7,3.5c0.1,1.1,0.1,1.8,0.1,2.2c0,0.4,0,1.2-0.1,2.2c-0.1,1.2-0.4,2.4-0.7,3.5
			c-0.4,1.4-1,2.8-1.8,4.1c-0.9,1.5-2,2.8-3.4,3.9c-1.6,1.3-3.4,2.2-5.3,2.9c-2.5,0.8-5.2,1.2-7.8,1.1h-11V92z M363.9,124.4h6.8
			c2.2,0,4.4-0.3,6.5-0.9c1.9-0.5,3.7-1.4,5.3-2.7c1.5-1.2,2.7-2.8,3.5-4.6c1.7-4.2,1.7-8.9,0-13.2c-0.8-1.8-2-3.4-3.5-4.6
			c-1.6-1.2-3.4-2.1-5.3-2.7c-2.1-0.6-4.3-0.9-6.5-0.9h-6.8V124.4z"/>
		<path class="st0" d="M403.1,92h21.6v3h-18.4v12.6h17.2v3h-17.2v13.8h19.1v3h-22.4V92z"/>
		<path class="st0" d="M437.8,92h9.3c0.5,0,1.1,0,1.9,0c0.9,0,1.7,0.1,2.6,0.3c1,0.2,1.9,0.4,2.9,0.8c1,0.4,1.8,0.9,2.6,1.6
			c0.8,0.7,1.4,1.7,1.9,2.7c0.5,1.2,0.8,2.6,0.8,3.9c0.1,1.4-0.2,2.9-0.9,4.2c-0.5,1-1.3,2-2.2,2.7c-0.9,0.7-1.9,1.2-2.9,1.5
			c-1,0.3-2,0.6-3,0.7l10.3,17h-3.8l-10-16.8h-6.1v16.8h-3.3V92z M441.1,107.6h7c1.4,0.1,2.9-0.2,4.2-0.7c0.9-0.3,1.8-0.9,2.5-1.6
			c0.6-0.6,1-1.2,1.2-2c0.4-1.3,0.4-2.7,0-4c-0.3-0.8-0.7-1.4-1.2-2c-0.7-0.7-1.6-1.2-2.5-1.6c-1.4-0.5-2.8-0.7-4.2-0.7h-7V107.6z"
			/>
		<path class="st0" d="M483.3,92h3.4l14.9,35.4h-3.7L494,118h-18.7l-4,9.4h-3.5L483.3,92z M484.8,95.6l-8.2,19.4h16.2L484.8,95.6z"
			/>
		<path class="st0" d="M511.7,92h3.3v32.4h16.5v3h-19.8L511.7,92z"/>
		<rect x="123.3" y="1.3" class="st1" width="139.5" height="17.9"/>
		<rect x="123.3" y="37.1" class="st1" width="139.5" height="17.9"/>
		<rect y="72.9" class="st1" width="262.8" height="17.9"/>
		<rect y="108.8" class="st1" width="262.8" height="17.9"/>
		<path class="st2" d="M114.4,13.1l-1.2-7.4c-0.4-2.4-1.3-4.4-2.1-4.4s-1.3,2-1.3,4.4v2c0,2.4-2,4.3-4.4,4.3H103v5.4h7.8
			c2,0.1,3.7-1.5,3.8-3.5C114.5,13.6,114.5,13.3,114.4,13.1"/>
		<path class="st2" d="M96.9,6.8H72.5c-0.1,0-0.3,0-0.4,0V5.6c0-2.4-0.6-4.4-1.3-4.4s-1.7,2-2.1,4.3L67.4,13c-0.4,2,0.8,3.9,2.8,4.3
			c0.3,0.1,0.6,0.1,0.9,0.1h7.3c0.7,0,1.4-0.1,2.1-0.4c-0.2,1.3-1.3,2.2-2.6,2.2H67.6c-1.5,0-2.7-1.2-2.7-2.7c0,0,0,0,0,0
			c0-0.1,0-0.3,0-0.4l1-6.2c0.2-1.5-0.7-2.8-2.2-3.1c0,0,0,0,0,0c-0.1,0-0.3,0-0.4,0H12.2c-1.1,0-2,0.6-2.4,1.6L0.1,23
			c-0.2,0.2-0.1,0.6,0,0.8L2,26c0.2,0.3,0.6,0.3,0.9,0.1l6.5-5.1v31.3c0,1.5,1.2,2.7,2.6,2.7c0,0,0,0,0.1,0h14.5
			c1.5,0,2.7-1.2,2.7-2.7V41.4c0-1.5,1.2-2.7,2.7-2.7c0,0,0,0,0,0h36.2c1.5,0,2.7,1.2,2.7,2.7c0,0,0,0,0,0v10.9
			c0,1.5,1.2,2.7,2.6,2.7c0,0,0,0,0.1,0h14.5c1.5,0,2.7-1.2,2.7-2.7l0,0V40.5h-7.7c-2.4,0-4.4-2-4.4-4.4c0,0,0,0,0,0v-7.5
			c0-1.4,0.7-2.7,1.8-3.5v9c0,2.4,2,4.4,4.4,4.4h11.8c2.4,0,4.4-2,4.4-4.4V11.1C101.2,8.7,99.3,6.8,96.9,6.8"/>
	</g>
</g>
</svg>
