<?xml version="1.0" encoding="UTF-8" standalone="no"?>
<!-- Generator: Adobe Illustrator 24.2.3, SVG Export Plug-In . SVG Version: 6.00 Build 0)  -->

<svg
   version="1.1"
   id="Layer_1"
   x="0px"
   y="0px"
   viewBox="0 0 263 127.4"
   xml:space="preserve"
   sodipodi:docname="rfed-logo-horiz-cropped.svg"
   inkscape:version="1.2.1 (9c6d41e, 2022-07-14)"
   width="263"
   height="127.4"
   xmlns:inkscape="http://www.inkscape.org/namespaces/inkscape"
   xmlns:sodipodi="http://sodipodi.sourceforge.net/DTD/sodipodi-0.dtd"
   xmlns="http://www.w3.org/2000/svg"
   xmlns:svg="http://www.w3.org/2000/svg"><defs
   id="defs986"><filter
     style="color-interpolation-filters:sRGB"
     inkscape:menu-tooltip="Does not filter but adds a filter region"
     inkscape:menu="Fill and Transparency"
     inkscape:label="Fast Crop"
     id="filter1174"
     x="0"
     y="0"
     width="1"
     height="1"
     inkscape:auto-region="false"><feColorMatrix
       values="1 0 0 0 0 1 0 0 0 0 1 0 0 0 0 0 0 0 0 1 "
       type="matrix"
       result="r"
       in="SourceGraphic"
       id="feColorMatrix1146" /><feColorMatrix
       values="0 1 0 0 0 0 1 0 0 0 0 1 0 0 0 0 0 0 0 1 "
       type="matrix"
       result="g"
       in="SourceGraphic"
       id="feColorMatrix1148" /><feColorMatrix
       values="0 0 1 0 0 0 0 1 0 0 0 0 1 0 0 0 0 0 0 1 "
       type="matrix"
       result="b"
       in="SourceGraphic"
       id="feColorMatrix1150" /><feBlend
       result="minrg"
       in="r"
       mode="darken"
       in2="g"
       id="feBlend1152" /><feBlend
       result="p"
       in="minrg"
       mode="darken"
       in2="b"
       id="feBlend1154" /><feBlend
       result="maxrg"
       in="r"
       mode="lighten"
       in2="g"
       id="feBlend1156" /><feBlend
       result="q"
       in="maxrg"
       mode="lighten"
       in2="b"
       id="feBlend1158" /><feComponentTransfer
       result="q2"
       in="q"
       id="feComponentTransfer1162"><feFuncR
         slope="0"
         type="linear"
         id="feFuncR1160" /></feComponentTransfer><feBlend
       result="pq"
       in="p"
       mode="lighten"
       in2="q2"
       id="feBlend1164" /><feColorMatrix
       values="-1 1 0 0 0 -1 1 0 0 0 -1 1 0 0 0 0 0 0 0 1 "
       type="matrix"
       result="qminp"
       in="pq"
       id="feColorMatrix1166" /><feComposite
       k3="1"
       operator="arithmetic"
       result="qminpc"
       in="qminp"
       in2="qminp"
       id="feComposite1168"
       k1="0"
       k2="0"
       k4="0" /><feBlend
       result="result2"
       in2="SourceGraphic"
       mode="screen"
       id="feBlend1170" /><feComposite
       operator="in"
       in="result2"
       in2="SourceGraphic"
       result="fbSourceGraphic"
       id="feComposite1172" /><feColorMatrix
       result="fbSourceGraphicAlpha"
       in="fbSourceGraphic"
       values="0 0 0 -1 0 0 0 0 -1 0 0 0 0 -1 0 0 0 0 1 0"
       id="feColorMatrix1260" /><feColorMatrix
       id="feColorMatrix1262"
       type="saturate"
       values="1"
       in="fbSourceGraphic" /></filter><clipPath
     clipPathUnits="userSpaceOnUse"
     id="clipPath1329"><rect
       style="fill:#000000"
       id="rect1331"
       width="263.06451"
       height="127.77419"
       x="0"
       y="0.57816374" /></clipPath><clipPath
     clipPathUnits="userSpaceOnUse"
     id="clipPath1337"><rect
       style="fill:#000000"
       id="rect1339"
       width="263.06451"
       height="128.35236"
       x="-0.57816374"
       y="-0.57816374" /></clipPath></defs><sodipodi:namedview
   id="namedview984"
   pagecolor="#ffffff"
   bordercolor="#000000"
   borderopacity="0.25"
   inkscape:showpageshadow="2"
   inkscape:pageopacity="0.0"
   inkscape:pagecheckerboard="0"
   inkscape:deskcolor="#d1d1d1"
   showgrid="false"
   inkscape:zoom="1.7296137"
   inkscape:cx="342.56203"
   inkscape:cy="74.294045"
   inkscape:window-width="1437"
   inkscape:window-height="795"
   inkscape:window-x="192"
   inkscape:window-y="144"
   inkscape:window-maximized="0"
   inkscape:current-layer="Layer_1" />
<style
   type="text/css"
   id="style939">
	.st0{fill:#59595B;}
	.st1{fill:#F15354;}
	.st2{fill:#0575A7;}
</style>
<g
   id="Layer_2_1_"
   style="filter:url(#filter1174)"
   clip-path="url(#clipPath1337)">
	<g
   id="Layer_1-2">
		<path
   class="st0"
   d="m 293.6,1.2 h 28.6 c 13.6,0 22.7,6.6 22.7,19.3 0,10.4 -7.1,16.6 -14,18.8 2,1.8 3.7,4.1 4.8,6.6 2.9,5.8 4.8,12.3 10.9,12.3 0.9,0 1.9,-0.2 2.8,-0.5 l -1.3,12.2 c -2.3,0.5 -4.6,0.8 -6.9,0.9 -8.2,0 -12.9,-3.2 -17.7,-14.2 -2,-4.9 -4.9,-13.6 -8.7,-13.6 h -3.9 V 70.4 H 293.7 V 1.2 Z m 17.2,12.5 v 17 h 6.2 c 4.9,0 10.7,-1.5 10.7,-8.9 0,-6.1 -3.9,-8.1 -8.6,-8.1 z"
   id="path941" />
		<path
   class="st0"
   d="m 368.1,1.2 h 17.4 l 23.4,69.3 H 391.5 L 387.2,57.3 H 364 l -4.2,13.2 h -15 z m 0,43.5 H 383 l -4.7,-14.6 c -1.1,-3.9 -1.9,-7.9 -2.4,-11.9 h -0.4 c -0.6,4 -1.4,7.9 -2.6,11.8 z"
   id="path943" />
		<path
   class="st0"
   d="M 409.6,1.2 H 428 l 18.2,34.4 c 1.5,3 3.6,8.2 5.2,12.3 h 0.4 C 451.6,44 451.1,38.4 451.1,34.4 V 1.2 h 14.1 v 69.3 h -18 L 428.3,36.2 c -1.9,-3.7 -3.6,-7.4 -5,-11.3 h -0.4 c 0.3,3.9 0.8,8.5 0.8,12.3 V 70.5 H 409.5 V 1.2 Z"
   id="path945" />
		<path
   class="st0"
   d="M 468.8,35.4 C 468.8,10.3 481.2,0 500.4,0 c 20.2,0 28.4,11.1 26.1,26.1 l -16,1.4 c 1.8,-11 -2.6,-15.4 -10.4,-15.4 -7.5,0 -13.6,5.6 -13.6,23.4 0,18.9 6.6,23.7 14.1,23.7 7.1,0 12.8,-4.4 11.6,-13.5 l 15,1.5 c 1.1,14.1 -9,24.4 -27.5,24.4 C 481,71.8 468.9,60.7 468.8,35.4"
   id="path947" />
		<polygon
   class="st0"
   points="532.8,1.2 549.9,1.2 549.9,27.4 571,27.4 571,1.2 588.1,1.2 588.1,70.6 571,70.6 571,41.2 549.9,41.2 549.9,70.6 532.8,70.6 "
   id="polygon949" />
		<polygon
   class="st0"
   points="593,1.2 638.9,1.2 638.9,14 610.2,14 610.2,28.9 634.3,28.9 634.3,41.6 610.2,41.6 610.2,57.8 639.9,57.8 639.9,70.6 593,70.6 "
   id="polygon951" />
		<path
   class="st0"
   d="m 643.2,1.2 h 28.5 c 13.6,0 22.7,6.6 22.7,19.3 0,10.4 -7.1,16.6 -14,18.8 2,1.8 3.7,4.1 4.8,6.6 2.9,5.8 4.8,12.3 10.9,12.3 0.9,0 1.9,-0.2 2.8,-0.5 l -1.3,12.2 c -2.3,0.5 -4.6,0.8 -6.9,0.9 -8.2,0 -12.9,-3.2 -17.8,-14.2 C 670.9,51.7 668,43 664.2,43 h -3.9 v 27.4 h -17.1 z m 17.2,12.5 v 17 h 6.2 c 4.9,0 10.7,-1.5 10.7,-8.9 0,-6.1 -3.9,-8.1 -8.6,-8.1 z"
   id="path953" />
		<path
   class="st0"
   d="m 293.6,92 h 21.2 v 3 h -17.9 v 12.6 h 16.6 v 3 h -16.7 v 16.8 h -3.3 V 92 Z"
   id="path955" />
		<path
   class="st0"
   d="M 326.4,92 H 348 v 3 h -18.4 v 12.6 h 17.2 v 3 h -17.2 v 13.8 h 19.1 v 3 H 326.3 V 92 Z"
   id="path957"
   clip-path="url(#clipPath1329)" />
		<path
   class="st0"
   d="m 360.6,92 h 11 c 2.6,-0.1 5.3,0.3 7.8,1.1 1.9,0.6 3.7,1.6 5.3,2.9 1.3,1.1 2.5,2.4 3.4,3.9 0.8,1.3 1.4,2.6 1.8,4.1 0.3,1.2 0.6,2.3 0.7,3.5 0.1,1.1 0.1,1.8 0.1,2.2 0,0.4 0,1.2 -0.1,2.2 -0.1,1.2 -0.4,2.4 -0.7,3.5 -0.4,1.4 -1,2.8 -1.8,4.1 -0.9,1.5 -2,2.8 -3.4,3.9 -1.6,1.3 -3.4,2.2 -5.3,2.9 -2.5,0.8 -5.2,1.2 -7.8,1.1 h -11 z m 3.3,32.4 h 6.8 c 2.2,0 4.4,-0.3 6.5,-0.9 1.9,-0.5 3.7,-1.4 5.3,-2.7 1.5,-1.2 2.7,-2.8 3.5,-4.6 1.7,-4.2 1.7,-8.9 0,-13.2 -0.8,-1.8 -2,-3.4 -3.5,-4.6 -1.6,-1.2 -3.4,-2.1 -5.3,-2.7 -2.1,-0.6 -4.3,-0.9 -6.5,-0.9 h -6.8 z"
   id="path959" />
		<path
   class="st0"
   d="m 403.1,92 h 21.6 v 3 h -18.4 v 12.6 h 17.2 v 3 h -17.2 v 13.8 h 19.1 v 3 H 403 V 92 Z"
   id="path961" />
		<path
   class="st0"
   d="m 437.8,92 h 9.3 c 0.5,0 1.1,0 1.9,0 0.9,0 1.7,0.1 2.6,0.3 1,0.2 1.9,0.4 2.9,0.8 1,0.4 1.8,0.9 2.6,1.6 0.8,0.7 1.4,1.7 1.9,2.7 0.5,1.2 0.8,2.6 0.8,3.9 0.1,1.4 -0.2,2.9 -0.9,4.2 -0.5,1 -1.3,2 -2.2,2.7 -0.9,0.7 -1.9,1.2 -2.9,1.5 -1,0.3 -2,0.6 -3,0.7 l 10.3,17 h -3.8 l -10,-16.8 h -6.1 v 16.8 h -3.3 V 92 Z m 3.3,15.6 h 7 c 1.4,0.1 2.9,-0.2 4.2,-0.7 0.9,-0.3 1.8,-0.9 2.5,-1.6 0.6,-0.6 1,-1.2 1.2,-2 0.4,-1.3 0.4,-2.7 0,-4 -0.3,-0.8 -0.7,-1.4 -1.2,-2 -0.7,-0.7 -1.6,-1.2 -2.5,-1.6 -1.4,-0.5 -2.8,-0.7 -4.2,-0.7 h -7 z"
   id="path963" />
		<path
   class="st0"
   d="m 483.3,92 h 3.4 l 14.9,35.4 h -3.7 L 494,118 h -18.7 l -4,9.4 h -3.5 z m 1.5,3.6 -8.2,19.4 h 16.2 z"
   id="path965" />
		<path
   class="st0"
   d="m 511.7,92 h 3.3 v 32.4 h 16.5 v 3 h -19.8 z"
   id="path967" />
		<rect
   x="123.3"
   y="1.3"
   class="st1"
   width="139.5"
   height="17.9"
   id="rect969" />
		<rect
   x="123.3"
   y="37.099998"
   class="st1"
   width="139.5"
   height="17.9"
   id="rect971" />
		<rect
   y="72.900002"
   class="st1"
   width="262.79999"
   height="17.9"
   id="rect973"
   x="0" />
		<rect
   y="108.8"
   class="st1"
   width="262.79999"
   height="17.9"
   id="rect975"
   x="0" />
		<path
   class="st2"
   d="m 114.4,13.1 -1.2,-7.4 c -0.4,-2.4 -1.3,-4.4 -2.1,-4.4 -0.8,0 -1.3,2 -1.3,4.4 v 2 c 0,2.4 -2,4.3 -4.4,4.3 H 103 v 5.4 h 7.8 c 2,0.1 3.7,-1.5 3.8,-3.5 -0.1,-0.3 -0.1,-0.6 -0.2,-0.8"
   id="path977" />
		<path
   class="st2"
   d="M 96.9,6.8 H 72.5 c -0.1,0 -0.3,0 -0.4,0 V 5.6 c 0,-2.4 -0.6,-4.4 -1.3,-4.4 -0.7,0 -1.7,2 -2.1,4.3 L 67.4,13 c -0.4,2 0.8,3.9 2.8,4.3 0.3,0.1 0.6,0.1 0.9,0.1 h 7.3 c 0.7,0 1.4,-0.1 2.1,-0.4 -0.2,1.3 -1.3,2.2 -2.6,2.2 H 67.6 c -1.5,0 -2.7,-1.2 -2.7,-2.7 0,0 0,0 0,0 0,-0.1 0,-0.3 0,-0.4 l 1,-6.2 c 0.2,-1.5 -0.7,-2.8 -2.2,-3.1 0,0 0,0 0,0 -0.1,0 -0.3,0 -0.4,0 H 12.2 c -1.1,0 -2,0.6 -2.4,1.6 L 0.1,23 c -0.2,0.2 -0.1,0.6 0,0.8 L 2,26 c 0.2,0.3 0.6,0.3 0.9,0.1 L 9.4,21 v 31.3 c 0,1.5 1.2,2.7 2.6,2.7 0,0 0,0 0.1,0 h 14.5 c 1.5,0 2.7,-1.2 2.7,-2.7 V 41.4 c 0,-1.5 1.2,-2.7 2.7,-2.7 0,0 0,0 0,0 h 36.2 c 1.5,0 2.7,1.2 2.7,2.7 0,0 0,0 0,0 v 10.9 c 0,1.5 1.2,2.7 2.6,2.7 0,0 0,0 0.1,0 h 14.5 c 1.5,0 2.7,-1.2 2.7,-2.7 v 0 -11.8 h -7.7 c -2.4,0 -4.4,-2 -4.4,-4.4 0,0 0,0 0,0 v -7.5 c 0,-1.4 0.7,-2.7 1.8,-3.5 v 9 c 0,2.4 2,4.4 4.4,4.4 h 11.8 c 2.4,0 4.4,-2 4.4,-4.4 v -23 C 101.2,8.7 99.3,6.8 96.9,6.8"
   id="path979" />
	</g>
</g>
</svg>
