<?xml version="1.0" encoding="UTF-8" standalone="no"?>
<!-- Created with Inkscape (http://www.inkscape.org/) -->

<svg
   width="229.68028mm"
   height="96.289543mm"
   viewBox="0 0 229.68028 96.289543"
   version="1.1"
   id="svg28582"
   inkscape:version="1.2.2 (b0a8486, 2022-12-01)"
   sodipodi:docname="rgs-logo-text-light.svg"
   xmlns:inkscape="http://www.inkscape.org/namespaces/inkscape"
   xmlns:sodipodi="http://sodipodi.sourceforge.net/DTD/sodipodi-0.dtd"
   xmlns="http://www.w3.org/2000/svg"
   xmlns:svg="http://www.w3.org/2000/svg">
  <sodipodi:namedview
     id="namedview28584"
     pagecolor="#878787"
     bordercolor="#666666"
     borderopacity="1.0"
     inkscape:showpageshadow="2"
     inkscape:pageopacity="0"
     inkscape:pagecheckerboard="0"
     inkscape:deskcolor="#d1d1d1"
     inkscape:document-units="mm"
     showgrid="false"
     inkscape:zoom="0.93834397"
     inkscape:cx="306.9237"
     inkscape:cy="271.2225"
     inkscape:window-width="1920"
     inkscape:window-height="1147"
     inkscape:window-x="1920"
     inkscape:window-y="25"
     inkscape:window-maximized="0"
     inkscape:current-layer="layer1" />
  <defs
     id="defs28579">
    <rect
       x="899.45697"
       y="443.33423"
       width="499.81671"
       height="82.059464"
       id="rect31418" />
    <rect
       x="365.32693"
       y="557.03314"
       width="423.2005"
       height="86.810356"
       id="rect31337" />
    <rect
       x="401.59088"
       y="222.23962"
       width="695.3111"
       height="348.30536"
       id="rect29914" />
  </defs>
  <g
     inkscape:label="Layer 1"
     inkscape:groupmode="layer"
     id="layer1"
     transform="translate(-21.734365,-57.567093)">
    <path
       class="cls-1"
       d="m 61.230397,151.72851 c -2.1934,-1.08479 -4.48204,-1.95792 -6.90563,-2.88131 -8.776226,-3.33904 -18.700747,-7.12259 -26.177872,-22.24617 -5.434541,-10.99608 -3.500437,-19.18229 -1.807104,-26.40542 1.537229,-6.524619 2.751667,-11.678699 -1.497542,-18.483789 l -1.63777,-2.62202 14.041437,-13.72658 2.264833,0.81492 a 26.32075,26.32075 0 0 0 8.667748,1.55045 c 5.02709,0 9.017,-1.66952 11.83481,-4.96358 l 2.91042,-3.41842 2.91042,3.41842 c 2.81781,3.29406 6.79979,4.96358 11.83481,4.96358 a 26.32075,26.32075 0 0 0 8.66775,-1.55045 l 2.26483,-0.81492 14.041443,13.72658 -1.63777,2.62202 c -4.228043,6.81567 -3.016253,11.95917 -1.481673,18.483789 1.701273,7.22313 3.630093,15.40934 -1.80446,26.40542 -7.47712,15.12358 -17.41222,18.90713 -26.17787,22.24617 -2.42358,0.92339 -4.71223,1.79652 -6.90562,2.88131 l -1.70392,0.84137 z"
       id="path20259"
       style="display:inline;mix-blend-mode:darken;fill:#ffffff;stroke:#192072;stroke-width:2.30717px;stroke-miterlimit:10;stroke-opacity:1" />
    <path
       class="cls-2"
       d="m 73.184267,144.08999 c 3.14854,-1.25413 6.29709,-2.69346 9.33715,-4.826 V 94.679051 h -9.33715 z"
       id="path20261"
       style="display:inline;fill:#b70000;fill-opacity:1;stroke:#b70000;stroke-width:0.264583;stroke-opacity:1" />
    <path
       class="cls-2"
       d="m 43.326041,139.24811 c 3.037416,2.13519 6.191246,3.57717 9.337146,4.84188 V 94.679051 h -9.337146 z"
       id="path20263"
       style="display:inline;fill:#b70000;fill-opacity:1;stroke-width:0.264583" />
    <path
       class="cls-2"
       d="m 88.112057,134.2713 c 2.17752,-2.45269 4.24921,-5.50069 6.1648,-9.37419 6.336773,-12.81906 1.41022,-21.26985 0.22489,-30.218059 h -6.38969 z"
       id="path20265"
       style="display:inline;fill:#b70000;fill-opacity:1;stroke-width:0.264583" />
    <path
       class="cls-2"
       d="m 37.732749,94.679051 h -6.365875 c -1.185333,8.948209 -6.111875,17.398999 0.224896,30.218059 1.910292,3.86027 3.96875,6.90034 6.140979,9.34773 z"
       id="path20267"
       style="fill:#b70000;fill-opacity:1;stroke-width:0.264583" />
    <path
       class="cls-2"
       d="M 67.590977,146.25428 V 94.679051 h -9.34244 V 146.2437 c 1.5875,0.62441 3.14855,1.28058 4.68048,2.03729 1.53194,-0.75142 3.08769,-1.40758 4.66196,-2.02671 z"
       id="path20269"
       style="fill:#b70000;fill-opacity:1;stroke:#b70000;stroke-width:0.264583;stroke-opacity:1" />
    <path
       class="cls-3"
       d="m 31.366874,94.679051 h 63.129583 c -0.61383,-4.64079 -0.2249,-9.41387 3.26496,-15.00187 l -10.10444,-9.88219 c -6.74687,2.42887 -17.82498,3.53483 -24.72267,-4.53496 -6.89768,8.06979 -17.975787,6.96383 -24.725308,4.53496 l -10.107083,9.88219 c 3.489854,5.588 3.878792,10.36108 3.264958,15.00187 z"
       id="path20271"
       style="mix-blend-mode:darken;fill:#192072;fill-opacity:1;fill-rule:nonzero;stroke-width:0.264583" />
    <path
       class="cls-4"
       d="m 82.534647,77.835681 -0.42598,-2.53736 c -0.13494,-0.82021 -0.45509,-1.49225 -0.70909,-1.49225 -0.254,0 -0.46037,0.67998 -0.46037,1.51077 v 0.6694 a 1.5160625,1.5160625 0 0 1 -1.51077,1.51077 h -0.80698 v 1.83621 h 0.14287 2.50296 a 1.2408958,1.2408958 0 0 0 1.26207,-1.49225"
       id="path20273"
       style="fill:#ffffff;stroke-width:0.264583" />
    <path
       class="cls-4"
       d="m 76.504787,75.676681 h -4.07458 -0.0979 -4.17247 a 1.2964583,1.2964583 0 0 0 -0.14288,0 v -0.37836 c 0,-0.83079 -0.20637,-1.50812 -0.46037,-1.50812 -0.254,0 -0.5768,0.67469 -0.70909,1.50812 l -0.42598,2.55059 a 1.2408958,1.2408958 0 0 0 1.26207,1.49225 h 2.51089 a 2.3547916,2.3547916 0 0 0 0.71702,-0.11113 0.92339582,0.92339582 0 0 1 -0.90752,0.75142 h -3.5216 a 0.92339582,0.92339582 0 0 1 -0.91017,-1.07421 l 0.34925,-2.15106 a 0.92074999,0.92074999 0 0 0 -0.91017,-1.07421 h -17.51806 a 0.92339582,0.92339582 0 0 0 -0.841374,0.52917 l -3.299354,5.02708 a 0.22754166,0.22754166 0 0 0 0.01587,0.26458 l 0.640292,0.75671 a 0.22754166,0.22754166 0 0 0 0.3175,0.0317 l 2.243666,-1.77006 v 10.74473 a 0.92074999,0.92074999 0 0 0 0.92339,0.92075 h 4.97417 a 0.92074999,0.92074999 0 0 0 0.92339,-0.92075 v -3.72269 a 0.92074999,0.92074999 0 0 1 0.92075,-0.92075 h 12.42219 a 0.92074999,0.92074999 0 0 1 0.9234,0.92075 v 3.73856 a 0.92074999,0.92074999 0 0 0 0.92339,0.92075 h 4.97417 a 0.92074999,0.92074999 0 0 0 0.9234,-0.92075 v -4.02166 h -2.64584 a 1.5160625,1.5160625 0 0 1 -1.51077,-1.51078 v -2.58497 a 1.5134166,1.5134166 0 0 1 0.60591,-1.2065 v 3.08504 a 1.5160625,1.5160625 0 0 0 1.51076,1.51077 h 4.06664 a 1.5134166,1.5134166 0 0 0 1.50813,-1.51077 v -7.85548 a 1.5134166,1.5134166 0 0 0 -1.50813,-1.51077"
       id="path20275"
       style="display:inline;fill:#ffffff;stroke-width:0.264583" />
    <text
       xml:space="preserve"
       transform="matrix(0.31032119,0,0,0.31032119,-18.044918,1.067738)"
       id="text29912"
       style="font-size:66.6667px;line-height:1.25;font-family:Poppins;-inkscape-font-specification:'Poppins, Normal';font-variant-ligatures:none;white-space:pre;shape-inside:url(#rect29914);display:inline;fill:#000000"><tspan
         x="401.5918"
         y="280.5736"
         id="tspan32464"><tspan
           style="font-weight:bold"
           id="tspan32462">
</tspan></tspan><tspan
         x="401.5918"
         y="363.90697"
         id="tspan32468"><tspan
           style="font-weight:bold"
           id="tspan32466">GOVERNMENT</tspan></tspan></text>
    <path
       d="m 108.18041,67.759231 h 10.07457 c 4.78566,0 8.00825,2.323248 8.00825,6.809163 0,3.661533 -2.49456,5.867013 -4.92484,6.627155 0.72798,0.620966 1.2633,1.445344 1.70225,2.323254 1.0171,2.066304 1.7023,4.346732 3.84356,4.346732 0.546,0 0.97426,-0.182007 0.97426,-0.182007 l -0.47109,4.314613 c 0,0 -1.30615,0.321206 -2.43031,0.321206 -2.90138,0 -4.56086,-1.124151 -6.26316,-4.99981 -0.72799,-1.73441 -1.73437,-4.785685 -3.08339,-4.785685 h -1.38109 v 9.667728 h -6.04901 V 67.759251 m 6.04901,4.378845 v 6.016907 h 2.17338 c 1.7344,0 3.76858,-0.54602 3.76858,-3.147633 0,-2.141249 -1.38109,-2.858567 -3.04058,-2.858567 h -2.90138 z"
       id="path31128"
       style="fill:#000000;stroke-width:1.07062" />
    <path
       d="m 134.43209,67.759231 h 6.12397 l 8.25448,24.453035 h -6.12394 l -1.52028,-4.635799 h -8.19027 l -1.48818,4.635799 h -5.28889 l 8.23311,-24.453035 m 0,15.320616 h 5.25673 l -1.67015,-5.13899 c -0.57813,-1.734409 -0.83508,-4.196845 -0.83508,-4.196845 h -0.14977 c 0,0 -0.36417,2.494555 -0.91005,4.164729 z"
       id="path31130"
       style="fill:#000000;stroke-width:1.07062" />
    <path
       d="m 149.06748,67.759231 h 6.48801 l 6.41303,12.130161 c 0.546,1.049208 1.26333,2.901391 1.85218,4.346728 h 0.14973 c -0.0747,-1.3811 -0.25694,-3.329634 -0.25694,-4.74286 V 67.759231 h 4.95697 v 24.453035 h -6.33806 l -6.65929,-12.098045 c -0.62096,-1.092036 -1.26335,-2.676557 -1.77725,-3.982718 h -0.14975 c 0.10731,1.381105 0.28892,3.008449 0.28892,4.346733 v 11.73403 h -4.9677 V 67.759231"
       id="path31132"
       style="fill:#000000;stroke-width:1.07062" />
    <path
       d="m 169.95533,79.814449 c 0,-8.832646 4.37888,-12.494177 11.15592,-12.494177 7.13037,0 9.99962,3.907778 9.19664,9.196655 l -5.65288,0.50319 c 0.62095,-3.875652 -0.91,-5.428056 -3.66151,-5.428056 -2.64445,0 -4.7857,1.959239 -4.7857,8.254504 0,6.669986 2.32328,8.372276 4.95699,8.372276 2.49454,0 4.52873,-1.563113 4.08978,-4.742862 l 5.28888,0.546016 c 0.39613,4.956987 -3.19047,8.61852 -9.71057,8.61852 -6.59502,0 -10.87755,-3.907775 -10.87755,-12.826066"
       id="path31134"
       style="fill:#000000;stroke-width:1.07062" />
    <polyline
       points="172.5,26.84 178.15,26.84 178.15,35.47 185.09,35.47 185.09,26.84 190.74,26.84 190.74,49.68 185.09,49.68    185.09,40 178.15,40 178.15,49.68 172.5,49.68 172.5,26.84  "
       id="polyline31136"
       transform="matrix(1.0706233,0,0,1.0706233,7.1135505,39.0237)"
       style="fill:#000000" />
    <polyline
       points="193,26.84 208.12,26.84 208.12,31.03 198.65,31.03 198.65,35.94 206.6,35.94 206.6,40.13 198.65,40.13    198.65,45.48 208.46,45.48 208.46,49.68 193,49.68 193,26.84  "
       id="polyline31138"
       transform="matrix(1.0706233,0,0,1.0706233,7.1135505,39.0237)"
       style="fill:#000000" />
    <path
       d="m 231.45197,67.759231 h 10.07457 c 4.78567,0 8.00823,2.323248 8.00823,6.809163 0,3.661533 -2.49454,5.867013 -4.92484,6.627155 0.72804,0.620966 1.26334,1.445344 1.70228,2.323254 1.01709,2.066304 1.70231,4.346732 3.84354,4.346732 0.54601,0 0.97426,-0.182007 0.97426,-0.182007 l -0.47103,4.314613 c 0,0 -1.30622,0.321206 -2.43036,0.321206 -2.90137,0 -4.56084,-1.124151 -6.26314,-4.99981 -0.72803,-1.73441 -1.73442,-4.785685 -3.08337,-4.785685 H 237.501 v 9.667728 h -6.04903 V 67.759251 m 6.04903,4.378845 v 6.016907 h 2.17334 c 1.73444,0 3.76858,-0.54602 3.76858,-3.147633 0,-2.141249 -1.38109,-2.858567 -3.04054,-2.858567 H 237.501 Z"
       id="path31140"
       style="fill:#000000;stroke-width:1.07062" />
    <g
       aria-label="CARBIDE"
       id="text31335"
       style="font-size:27.4547px;line-height:1.25;font-family:Poppins;-inkscape-font-specification:'Poppins, Normal';font-variant-ligatures:none;white-space:pre;display:inline;fill:#b70000;stroke-width:1.14395"
       transform="matrix(1.1728675,0,0,1.1728675,-20.951266,-17.259586)">
      <path
         d="m 116.52308,118.82678 c -5.38112,0 -8.37368,3.04747 -8.37368,9.27969 0,6.20476 2.96511,9.25223 8.37368,9.25223 h 7.16568 v -3.23965 h -7.16568 c -3.59656,0 -5.13403,-1.78456 -5.13403,-6.01258 0,-4.25548 1.56492,-6.04003 5.13403,-6.04003 h 7.16568 v -3.23966 z"
         style="fill:#000000"
         id="path31550" />
      <path
         d="m 135.27462,122.4508 c 0.19218,-0.43927 0.49419,-0.63146 0.93346,-0.63146 0.43928,0 0.74128,0.19219 0.90601,0.63146 l 5.62821,14.9079 h 3.59657 l -6.25968,-16.47282 c -0.65891,-1.72964 -1.92183,-2.38856 -3.84365,-2.38856 -1.94929,0 -3.2122,0.65892 -3.89857,2.38856 l -6.50677,16.47282 h 3.56912 z"
         style="font-family:Nasalization;-inkscape-font-specification:Nasalization"
         id="path31552" />
      <path
         d="m 149.02938,118.82678 v 3.23966 h 10.15824 c 1.78456,0 2.58074,1.12564 2.58074,2.44346 0,1.31783 -0.74127,2.58075 -2.58074,2.58075 h -7.22058 c -2.03165,0 -2.9102,0.85109 -2.9102,2.93765 v 7.3304 h 3.23965 v -6.69894 c 0,-0.32946 0.16473,-0.46673 0.46673,-0.46673 h 4.83203 l 4.22802,7.16567 h 3.59657 l -4.31039,-7.41277 c 2.82784,-0.79618 3.92602,-3.2671 3.92602,-5.5733 0,-2.96511 -1.78455,-5.54585 -5.95767,-5.54585 z"
         style="fill:#000000"
         id="path31554" />
      <path
         d="m 170.22438,118.82678 c -1.04328,0 -1.53746,0.49419 -1.53746,1.51001 v 15.51191 c 0,1.01582 0.49418,1.51 1.53746,1.51 h 8.23641 c 4.3653,0 6.20476,-2.14146 6.20476,-5.10657 0,-2.14147 -0.98837,-3.5142 -2.74547,-4.22802 1.72965,-0.68637 2.66311,-1.97674 2.66311,-4.11821 0,-3.02002 -1.83947,-5.07912 -6.20476,-5.07912 z m 1.64728,10.51515 h 6.67149 c 1.89438,0 2.85529,0.82364 2.85529,2.38856 0,1.51001 -0.906,2.41601 -2.85529,2.41601 h -6.31458 c -0.21964,0 -0.35691,-0.0824 -0.35691,-0.302 z m 0,-7.00095 c 0,-0.21964 0.13727,-0.32945 0.35691,-0.32945 h 6.25967 c 1.97674,0 2.82784,0.96091 2.82784,2.41601 0,1.51001 -0.93346,2.22383 -2.85529,2.22383 h -6.58913 z"
         style="fill:#000000"
         id="path31556" />
      <path
         d="m 188.42685,118.82678 v 18.53192 h 3.23965 v -18.53192 z"
         style="fill:#000000"
         id="path31558" />
      <path
         d="m 197.67903,118.82678 c -1.04328,0 -1.53746,0.49419 -1.53746,1.51001 v 15.51191 c 0,1.01582 0.49418,1.51 1.53746,1.51 h 6.53422 c 5.43603,0 8.34623,-3.02001 8.34623,-9.25223 0,-6.25967 -2.93765,-9.27969 -8.34623,-9.27969 z m 1.70219,3.56911 c 0,-0.24709 0.10982,-0.32945 0.35691,-0.32945 h 4.47512 c 3.59656,0 5.10657,1.78455 5.10657,6.01257 0,4.25548 -1.51001,6.04004 -5.10657,6.04004 h -4.47512 c -0.24709,0 -0.35691,-0.0824 -0.35691,-0.32946 z"
         style="fill:#000000"
         id="path31560" />
      <path
         d="m 221.89406,118.82678 c -4.3653,0 -6.20476,2.08656 -6.20476,5.05167 0,2.03164 0.87855,3.45929 2.6082,4.17311 -1.70219,0.71382 -2.66311,2.14147 -2.66311,4.25548 0,2.88274 1.78456,5.05166 6.17731,5.05166 h 9.38951 v -3.23965 h -9.38951 c -1.89438,0 -2.80038,-0.87855 -2.80038,-2.33365 0,-1.51001 0.96091,-2.25129 2.82783,-2.25129 h 9.19733 v -2.93765 h -9.11496 c -1.86692,0 -2.82784,-0.68637 -2.82784,-2.19638 0,-1.42764 0.8511,-2.33364 2.80038,-2.33364 h 9.27969 v -3.23966 z"
         style="fill:#000000"
         id="path31562" />
    </g>
    <text
       xml:space="preserve"
       transform="scale(0.26458333)"
       id="text31416"
       style="font-size:24px;line-height:1.25;font-family:Poppins;-inkscape-font-specification:'Poppins, Normal';font-variant-ligatures:none;white-space:pre;shape-inside:url(#rect31418);display:inline" />
  </g>
</svg>
