<?xml version="1.0" encoding="UTF-8" standalone="no"?>
<!-- Created with Inkscape (http://www.inkscape.org/) -->

<svg
   width="210.48787mm"
   height="96.289543mm"
   viewBox="0 0 210.48787 96.289543"
   version="1.1"
   id="svg28582"
   inkscape:version="1.2.2 (b0a8486, 2022-12-01)"
   sodipodi:docname="rgs-logo-text-light.svg"
   xmlns:inkscape="http://www.inkscape.org/namespaces/inkscape"
   xmlns:sodipodi="http://sodipodi.sourceforge.net/DTD/sodipodi-0.dtd"
   xmlns="http://www.w3.org/2000/svg"
   xmlns:svg="http://www.w3.org/2000/svg">
  <sodipodi:namedview
     id="namedview28584"
     pagecolor="#878787"
     bordercolor="#666666"
     borderopacity="1.0"
     inkscape:showpageshadow="2"
     inkscape:pageopacity="0"
     inkscape:pagecheckerboard="0"
     inkscape:deskcolor="#d1d1d1"
     inkscape:document-units="mm"
     showgrid="false"
     inkscape:zoom="0.93834397"
     inkscape:cx="345.28916"
     inkscape:cy="234.98845"
     inkscape:window-width="1920"
     inkscape:window-height="1147"
     inkscape:window-x="1920"
     inkscape:window-y="25"
     inkscape:window-maximized="0"
     inkscape:current-layer="layer1" />
  <defs
     id="defs28579">
    <rect
       x="899.45697"
       y="443.33423"
       width="499.81671"
       height="82.059464"
       id="rect31418" />
    <rect
       x="365.32693"
       y="557.03314"
       width="423.2005"
       height="86.810356"
       id="rect31337" />
    <rect
       x="401.59088"
       y="222.23962"
       width="695.3111"
       height="348.30536"
       id="rect29914" />
  </defs>
  <g
     inkscape:label="Layer 1"
     inkscape:groupmode="layer"
     id="layer1"
     transform="translate(-21.734365,-57.567093)">
    <path
       class="cls-1"
       d="m 61.230397,151.72851 c -2.1934,-1.08479 -4.48204,-1.95792 -6.90563,-2.88131 -8.776226,-3.33904 -18.700747,-7.12259 -26.177872,-22.24617 -5.434541,-10.99608 -3.500437,-19.18229 -1.807104,-26.40542 1.537229,-6.524619 2.751667,-11.678699 -1.497542,-18.483789 l -1.63777,-2.62202 14.041437,-13.72658 2.264833,0.81492 a 26.32075,26.32075 0 0 0 8.667748,1.55045 c 5.02709,0 9.017,-1.66952 11.83481,-4.96358 l 2.91042,-3.41842 2.91042,3.41842 c 2.81781,3.29406 6.79979,4.96358 11.83481,4.96358 a 26.32075,26.32075 0 0 0 8.66775,-1.55045 l 2.26483,-0.81492 14.041443,13.72658 -1.63777,2.62202 c -4.228043,6.81567 -3.016253,11.95917 -1.481673,18.483789 1.701273,7.22313 3.630093,15.40934 -1.80446,26.40542 -7.47712,15.12358 -17.41222,18.90713 -26.17787,22.24617 -2.42358,0.92339 -4.71223,1.79652 -6.90562,2.88131 l -1.70392,0.84137 z"
       id="path20259"
       style="display:inline;mix-blend-mode:darken;fill:#ffffff;stroke:#192072;stroke-width:2.30717px;stroke-miterlimit:10;stroke-opacity:1" />
    <path
       class="cls-2"
       d="m 73.184267,144.08999 c 3.14854,-1.25413 6.29709,-2.69346 9.33715,-4.826 V 94.679051 h -9.33715 z"
       id="path20261"
       style="display:inline;fill:#b70000;fill-opacity:1;stroke:#b70000;stroke-width:0.264583;stroke-opacity:1" />
    <path
       class="cls-2"
       d="m 43.326041,139.24811 c 3.037416,2.13519 6.191246,3.57717 9.337146,4.84188 V 94.679051 h -9.337146 z"
       id="path20263"
       style="display:inline;fill:#b70000;fill-opacity:1;stroke-width:0.264583" />
    <path
       class="cls-2"
       d="m 88.112057,134.2713 c 2.17752,-2.45269 4.24921,-5.50069 6.1648,-9.37419 6.336773,-12.81906 1.41022,-21.26985 0.22489,-30.218059 h -6.38969 z"
       id="path20265"
       style="display:inline;fill:#b70000;fill-opacity:1;stroke-width:0.264583" />
    <path
       class="cls-2"
       d="m 37.732749,94.679051 h -6.365875 c -1.185333,8.948209 -6.111875,17.398999 0.224896,30.218059 1.910292,3.86027 3.96875,6.90034 6.140979,9.34773 z"
       id="path20267"
       style="fill:#b70000;fill-opacity:1;stroke-width:0.264583" />
    <path
       class="cls-2"
       d="M 67.590977,146.25428 V 94.679051 h -9.34244 V 146.2437 c 1.5875,0.62441 3.14855,1.28058 4.68048,2.03729 1.53194,-0.75142 3.08769,-1.40758 4.66196,-2.02671 z"
       id="path20269"
       style="fill:#b70000;fill-opacity:1;stroke:#b70000;stroke-width:0.264583;stroke-opacity:1" />
    <path
       class="cls-3"
       d="m 31.366874,94.679051 h 63.129583 c -0.61383,-4.64079 -0.2249,-9.41387 3.26496,-15.00187 l -10.10444,-9.88219 c -6.74687,2.42887 -17.82498,3.53483 -24.72267,-4.53496 -6.89768,8.06979 -17.975787,6.96383 -24.725308,4.53496 l -10.107083,9.88219 c 3.489854,5.588 3.878792,10.36108 3.264958,15.00187 z"
       id="path20271"
       style="mix-blend-mode:darken;fill:#192072;fill-opacity:1;fill-rule:nonzero;stroke-width:0.264583" />
    <path
       class="cls-4"
       d="m 82.534647,77.835681 -0.42598,-2.53736 c -0.13494,-0.82021 -0.45509,-1.49225 -0.70909,-1.49225 -0.254,0 -0.46037,0.67998 -0.46037,1.51077 v 0.6694 a 1.5160625,1.5160625 0 0 1 -1.51077,1.51077 h -0.80698 v 1.83621 h 0.14287 2.50296 a 1.2408958,1.2408958 0 0 0 1.26207,-1.49225"
       id="path20273"
       style="fill:#ffffff;stroke-width:0.264583" />
    <path
       class="cls-4"
       d="m 76.504787,75.676681 h -4.07458 -0.0979 -4.17247 a 1.2964583,1.2964583 0 0 0 -0.14288,0 v -0.37836 c 0,-0.83079 -0.20637,-1.50812 -0.46037,-1.50812 -0.254,0 -0.5768,0.67469 -0.70909,1.50812 l -0.42598,2.55059 a 1.2408958,1.2408958 0 0 0 1.26207,1.49225 h 2.51089 a 2.3547916,2.3547916 0 0 0 0.71702,-0.11113 0.92339582,0.92339582 0 0 1 -0.90752,0.75142 h -3.5216 a 0.92339582,0.92339582 0 0 1 -0.91017,-1.07421 l 0.34925,-2.15106 a 0.92074999,0.92074999 0 0 0 -0.91017,-1.07421 h -17.51806 a 0.92339582,0.92339582 0 0 0 -0.841374,0.52917 l -3.299354,5.02708 a 0.22754166,0.22754166 0 0 0 0.01587,0.26458 l 0.640292,0.75671 a 0.22754166,0.22754166 0 0 0 0.3175,0.0317 l 2.243666,-1.77006 v 10.74473 a 0.92074999,0.92074999 0 0 0 0.92339,0.92075 h 4.97417 a 0.92074999,0.92074999 0 0 0 0.92339,-0.92075 v -3.72269 a 0.92074999,0.92074999 0 0 1 0.92075,-0.92075 h 12.42219 a 0.92074999,0.92074999 0 0 1 0.9234,0.92075 v 3.73856 a 0.92074999,0.92074999 0 0 0 0.92339,0.92075 h 4.97417 a 0.92074999,0.92074999 0 0 0 0.9234,-0.92075 v -4.02166 h -2.64584 a 1.5160625,1.5160625 0 0 1 -1.51077,-1.51078 v -2.58497 a 1.5134166,1.5134166 0 0 1 0.60591,-1.2065 v 3.08504 a 1.5160625,1.5160625 0 0 0 1.51076,1.51077 h 4.06664 a 1.5134166,1.5134166 0 0 0 1.50813,-1.51077 v -7.85548 a 1.5134166,1.5134166 0 0 0 -1.50813,-1.51077"
       id="path20275"
       style="display:inline;fill:#ffffff;stroke-width:0.264583" />
    <text
       xml:space="preserve"
       transform="matrix(0.26458333,0,0,0.26458333,2.4779845,16.1069)"
       id="text29912"
       style="font-size:66.6667px;line-height:1.25;font-family:Poppins;-inkscape-font-specification:'Poppins, Normal';font-variant-ligatures:none;white-space:pre;shape-inside:url(#rect29914)"><tspan
         x="401.5918"
         y="280.5736"
         id="tspan31471"><tspan
           style="font-weight:bold"
           id="tspan31469">
</tspan></tspan><tspan
         x="401.5918"
         y="363.90697"
         id="tspan31475"><tspan
           style="font-weight:bold"
           id="tspan31473">GOVERNMENT</tspan></tspan></text>
    <path
       d="m 110.09912,72.487996 h 8.58969 c 4.08031,0 6.82792,1.980828 6.82792,5.805569 0,3.121864 -2.12689,5.002281 -4.19897,5.650387 0.62068,0.529442 1.0771,1.232316 1.45136,1.980832 0.86719,1.761754 1.4514,3.706073 3.27706,3.706073 0.46552,0 0.83066,-0.155182 0.83066,-0.155182 l -0.40165,3.678688 c 0,0 -1.11364,0.273864 -2.07211,0.273864 -2.47375,0 -3.88864,-0.958464 -5.34004,-4.262894 -0.6207,-1.478778 -1.47875,-4.080329 -2.62894,-4.080329 h -1.17753 v 8.242813 h -5.15745 V 72.488013 m 5.15745,3.733453 v 5.130082 h 1.85305 c 1.47877,0 3.21313,-0.465543 3.21313,-2.683707 0,-1.825653 -1.17753,-2.437246 -2.59243,-2.437246 h -2.47375 z"
       id="path31128"
       style="stroke-width:0.912825" />
    <path
       d="m 132.48159,72.487996 h 5.22137 l 7.03786,20.848932 h -5.22134 l -1.29621,-3.952534 h -6.98311 l -1.26884,3.952534 h -4.50937 l 7.01964,-20.848932 m 0,13.062529 h 4.48195 l -1.42399,-4.38156 c -0.49292,-1.478777 -0.712,-3.578277 -0.712,-3.578277 h -0.12769 c 0,0 -0.3105,2.126885 -0.77592,3.550894 z"
       id="path31130"
       style="stroke-width:0.912825" />
    <path
       d="m 144.95989,72.487996 h 5.53175 l 5.46782,10.342312 c 0.46553,0.894566 1.07713,2.473758 1.57919,3.706069 h 0.12766 c -0.0637,-1.177542 -0.21907,-2.838884 -0.21907,-4.043816 V 72.487996 h 4.22637 v 20.848932 h -5.4039 l -5.67778,-10.314929 c -0.52944,-0.931082 -1.07715,-2.282062 -1.51531,-3.39571 h -0.12768 c 0.0915,1.177546 0.24634,2.565038 0.24634,3.706074 v 10.004565 h -4.23552 V 72.487996"
       id="path31132"
       style="stroke-width:0.912825" />
    <path
       d="m 162.76911,82.76641 c 0,-7.530813 3.73348,-10.652675 9.51166,-10.652675 6.07943,0 8.52579,3.331815 7.84116,7.841171 l -4.81971,0.429026 c 0.52943,-3.304425 -0.77588,-4.628022 -3.12185,-4.628022 -2.25468,0 -4.08034,1.670469 -4.08034,7.037883 0,5.686905 1.98086,7.138296 4.22639,7.138296 2.12687,0 3.86124,-1.332727 3.48699,-4.043817 l 4.50936,0.465539 c 0.33774,4.226383 -2.72023,7.348247 -8.27934,7.348247 -5.62299,0 -9.27432,-3.331813 -9.27432,-10.935648"
       id="path31134"
       style="stroke-width:0.912825" />
    <polyline
       points="172.5,26.84 178.15,26.84 178.15,35.47 185.09,35.47 185.09,26.84 190.74,26.84 190.74,49.68 185.09,49.68    185.09,40 178.15,40 178.15,49.68 172.5,49.68 172.5,26.84  "
       id="polyline31136"
       transform="matrix(0.91282545,0,0,0.91282545,23.928377,47.98776)" />
    <polyline
       points="193,26.84 208.12,26.84 208.12,31.03 198.65,31.03 198.65,35.94 206.6,35.94 206.6,40.13 198.65,40.13    198.65,45.48 208.46,45.48 208.46,49.68 193,49.68 193,26.84  "
       id="polyline31138"
       transform="matrix(0.91282545,0,0,0.91282545,23.928377,47.98776)" />
    <path
       d="m 215.20183,72.487996 h 8.58969 c 4.08032,0 6.82791,1.980828 6.82791,5.805569 0,3.121864 -2.12687,5.002281 -4.19897,5.650387 0.62073,0.529442 1.07713,1.232316 1.45138,1.980832 0.86718,1.761754 1.45141,3.706073 3.27704,3.706073 0.46554,0 0.83067,-0.155182 0.83067,-0.155182 l -0.40161,3.678688 c 0,0 -1.11369,0.273864 -2.07215,0.273864 -2.47374,0 -3.88862,-0.958464 -5.34002,-4.262894 -0.62073,-1.478778 -1.47879,-4.080329 -2.62892,-4.080329 h -1.17755 v 8.242813 h -5.15747 V 72.488013 m 5.15747,3.733453 v 5.130082 h 1.85302 c 1.4788,0 3.21313,-0.465543 3.21313,-2.683707 0,-1.825653 -1.17753,-2.437246 -2.5924,-2.437246 h -2.47375 z"
       id="path31140"
       style="stroke-width:0.912825" />
    <text
       xml:space="preserve"
       transform="matrix(1.1439464,0,0,1.1439464,-311.32908,-523.8803)"
       id="text31335"
       style="font-size:24px;line-height:1.25;font-family:Poppins;-inkscape-font-specification:'Poppins, Normal';font-variant-ligatures:none;white-space:pre;shape-inside:url(#rect31337);fill:#b70000;fill-opacity:1"><tspan
         x="365.32617"
         y="578.0332"
         id="tspan31483"><tspan
           style="fill:#000000"
           id="tspan31477">C</tspan><tspan
           style="font-family:Nasalization;-inkscape-font-specification:Nasalization"
           id="tspan31479">A</tspan><tspan
           style="fill:#000000"
           id="tspan31481">RBIDE</tspan></tspan></text>
    <text
       xml:space="preserve"
       transform="scale(0.26458333)"
       id="text31416"
       style="font-size:24px;line-height:1.25;font-family:Poppins;-inkscape-font-specification:'Poppins, Normal';font-variant-ligatures:none;white-space:pre;shape-inside:url(#rect31418)" />
  </g>
</svg>
