<svg id="Layer_1" data-name="Layer 1" xmlns="http://www.w3.org/2000/svg" viewBox="0 0 3801.11 1043.99"><path d="M1060.91,430.65a93.56,93.56,0,0,0-39.79-39.06q-25.93-13.5-61-13.51-60.61,0-97.11,39.8T826.53,524.11q0,70.85,38.33,110.63t105.51,39.79q46,0,77.76-23.37T1094.5,584H936.06V492h271.61V608.08q-13.87,46.74-47.09,86.89t-84.34,65q-51.1,24.84-115.36,24.83-75.95,0-135.45-33.22T732.7,659.19q-33.23-59.13-33.22-135.08T732.7,388.67a241.78,241.78,0,0,1,38.84-52.07c-41.8-7.25-46.62-71-46.62-71s184.6-2.92,235.23-2.92q92,0,155.16,44.53t83.6,123.4Z"/><path d="M528.66,781.13,421.39,586.44H391.27V781.13H265.64V265.38H476.49q61,0,104,21.3t64.29,58.41Q666,382.2,666,427.75q0,51.44-29,91.83t-85.59,57.31l119,204.24ZM391.27,497.54h77.87q34.53,0,51.8-16.9t17.27-47.76q0-29.37-17.27-46.28t-51.8-16.9H391.27Z"/><path d="M1347.81,766.51q-44.6-18.27-71.27-54.1c-17.79-23.87-27.17-70.68-28.14-104.3h133c0,38.93,8.52,51.56,19.73,61.54s25.83,15,43.86,15q27.78,0,43.86-12.79T1505,636.4q0-19-12.79-31.44a103.43,103.43,0,0,0-31.43-20.47q-18.64-8-53-18.27-49.71-15.35-81.13-30.7t-54.1-45.32q-22.66-30-22.66-78.21,0-71.64,51.9-112.21T1437,259.21q84.78,0,136.7,40.57c34.59,27,53.11,82.73,55.55,131H1495.59c0-35.44-8.65-47.64-19.86-57.14s-25.58-14.26-43.12-14.26q-22.66,0-36.55,12.07t-13.89,34.72q0,24.86,23.39,38.74t73.1,30q49.69,16.81,80.77,32.16t53.72,44.59q22.66,29.24,22.67,75.29,0,43.86-22.29,79.68t-64.7,57q-42.4,21.21-100.15,21.2Q1392.4,784.78,1347.81,766.51Z"/><path d="M1913.46,488a30.73,30.73,0,0,1-12.83-10.2,26.09,26.09,0,0,1-4.8-15.07h14.55a19.13,19.13,0,0,0,6.08,12.37q5.32,5,15.52,5,9.75,0,15.38-4.88a15.79,15.79,0,0,0,5.62-12.52,14.22,14.22,0,0,0-3.3-9.75,21.08,21.08,0,0,0-8.25-5.7,128.91,128.91,0,0,0-13.35-4.2,117.47,117.47,0,0,1-16.57-5.4,26.68,26.68,0,0,1-10.65-8.47q-4.42-5.78-4.43-15.53a26.9,26.9,0,0,1,4.35-15.15,28.35,28.35,0,0,1,12.23-10.2,43,43,0,0,1,18.07-3.6q14.7,0,24.08,7.35a27.15,27.15,0,0,1,10.57,19.5h-15q-.75-6-6.3-10.58t-14.7-4.57q-8.55,0-14,4.42t-5.4,12.38a13.41,13.41,0,0,0,3.23,9.3,20.67,20.67,0,0,0,8,5.47,138.61,138.61,0,0,0,13.27,4.28,124.6,124.6,0,0,1,16.65,5.63,27.77,27.77,0,0,1,10.8,8.55q4.5,5.77,4.5,15.67a27.53,27.53,0,0,1-4,14.4,29.77,29.77,0,0,1-12,10.95,39.6,39.6,0,0,1-18.75,4.2A44.54,44.54,0,0,1,1913.46,488Z"/><path d="M2000.23,386.1v66.15q0,14,6.83,20.7t19,6.75q12,0,18.83-6.75t6.82-20.7V386.1h13.65v66q0,13-5.25,22a32.9,32.9,0,0,1-14.17,13.28,48.27,48.27,0,0,1-40.05,0,32.46,32.46,0,0,1-14.1-13.28q-5.17-8.91-5.18-22v-66Z"/><path d="M2102.75,488a30.7,30.7,0,0,1-12.82-10.2,26.09,26.09,0,0,1-4.8-15.07h14.55a19.12,19.12,0,0,0,6.07,12.37q5.33,5,15.53,5,9.75,0,15.38-4.88a15.79,15.79,0,0,0,5.62-12.52A14.22,14.22,0,0,0,2139,453a21.08,21.08,0,0,0-8.25-5.7,128.91,128.91,0,0,0-13.35-4.2,117.67,117.67,0,0,1-16.58-5.4,26.58,26.58,0,0,1-10.64-8.47q-4.44-5.78-4.43-15.53a26.9,26.9,0,0,1,4.35-15.15,28.32,28.32,0,0,1,12.22-10.2,43.07,43.07,0,0,1,18.08-3.6q14.7,0,24.08,7.35A27.18,27.18,0,0,1,2155,411.6h-15q-.75-6-6.3-10.58t-14.7-4.57q-8.55,0-14,4.42t-5.4,12.38a13.37,13.37,0,0,0,3.23,9.3,20.6,20.6,0,0,0,8,5.47,137.67,137.67,0,0,0,13.27,4.28,124.6,124.6,0,0,1,16.65,5.63,27.77,27.77,0,0,1,10.8,8.55q4.5,5.77,4.5,15.67a27.53,27.53,0,0,1-4,14.4,29.77,29.77,0,0,1-12,10.95,39.6,39.6,0,0,1-18.75,4.2A44.58,44.58,0,0,1,2102.75,488Z"/><path d="M2189.83,397.2v34.95h38.1V443.4h-38.1v36h42.6v11.25h-56.25V386h56.25V397.2Z"/><path d="M2348.23,490.65l-24.9-42.75h-16.5v42.75h-13.65V386.1h33.75q11.85,0,20,4a28.21,28.21,0,0,1,12.23,11,32.42,32.42,0,0,1-2.18,34.8q-6.23,8.25-18.67,11l26.25,43.8Zm-41.4-53.7h20.1q11.1,0,16.65-5.47t5.55-14.63q0-9.3-5.48-14.4t-16.72-5.1h-20.1Z"/><path d="M2384.37,427.12a37.07,37.07,0,0,1,14-14.77,38.46,38.46,0,0,1,19.88-5.25,36.5,36.5,0,0,1,18.75,4.65,31,31,0,0,1,11.84,11.7v-15h13.8v82.2h-13.8v-15.3a32.13,32.13,0,0,1-12.07,11.92,36,36,0,0,1-18.68,4.73,37.2,37.2,0,0,1-19.79-5.4,37.83,37.83,0,0,1-14-15.15,47.18,47.18,0,0,1-5.09-22.2A46.22,46.22,0,0,1,2384.37,427.12Zm60.75,6.08A26.55,26.55,0,0,0,2435,422.62a28.72,28.72,0,0,0-28-.07,26.05,26.05,0,0,0-10.05,10.5,33.31,33.31,0,0,0-3.75,16.2,34.12,34.12,0,0,0,3.75,16.43A26.43,26.43,0,0,0,2407,476.32,27.06,27.06,0,0,0,2421,480a27.47,27.47,0,0,0,14-3.68,26.33,26.33,0,0,0,10.12-10.64,33.91,33.91,0,0,0,3.75-16.28A33.42,33.42,0,0,0,2445.12,433.2Z"/><path d="M2550.12,416q9.3,9.09,9.3,26.18v48.45h-13.5v-46.5q0-12.3-6.15-18.83T2523,418.8q-10.8,0-17.17,6.75t-6.38,19.65v45.45h-13.65v-82.2h13.65v11.7a27.11,27.11,0,0,1,11-9.75,34.18,34.18,0,0,1,15.37-3.45Q2540.82,407,2550.12,416Z"/><path d="M2581.77,427.12A36.76,36.76,0,0,1,2596,412.35a40.71,40.71,0,0,1,20.77-5.25q15.15,0,25,7.35t13,20.4H2640A21.1,21.1,0,0,0,2631.8,423q-6.08-4.35-15.08-4.35-11.7,0-18.9,8t-7.2,22.72q0,14.85,7.2,23t18.9,8.1q9,0,15-4.2a21.3,21.3,0,0,0,8.25-12h14.7a36.17,36.17,0,0,1-13.2,20.18q-9.9,7.57-24.75,7.57a40.71,40.71,0,0,1-20.77-5.25,36.59,36.59,0,0,1-14.18-14.85q-5.1-9.6-5.1-22.5Q2576.67,436.65,2581.77,427.12Z"/><path d="M2730.42,410.93a28.23,28.23,0,0,1,11.78,11.92q4.28,7.95,4.27,19.35v48.45H2733v-46.5q0-12.3-6.15-18.83T2710,418.8q-10.8,0-17.17,6.75t-6.38,19.65v45.45h-13.65v-111h13.65v40.5a26.91,26.91,0,0,1,11.18-9.75,36.16,36.16,0,0,1,16-3.45A35.31,35.31,0,0,1,2730.42,410.93Z"/><path d="M2843.37,454.65h-65.7q.75,12.15,8.33,19a26.42,26.42,0,0,0,18.37,6.83q8.85,0,14.78-4.13a21.77,21.77,0,0,0,8.32-11h14.7a35.32,35.32,0,0,1-13.2,19.27q-9.9,7.43-24.6,7.43a41.53,41.53,0,0,1-20.92-5.25A37.19,37.19,0,0,1,2769,471.82a46.27,46.27,0,0,1-5.25-22.42q0-12.75,5.1-22.35a35.89,35.89,0,0,1,14.33-14.78,42.62,42.62,0,0,1,21.22-5.17,41.25,41.25,0,0,1,20.7,5.1,35.34,35.34,0,0,1,13.88,14,41.37,41.37,0,0,1,4.87,20.17A80.33,80.33,0,0,1,2843.37,454.65Zm-17.1-24.53a22.42,22.42,0,0,0-9.37-8.55,29.26,29.26,0,0,0-13.13-2.92,25.29,25.29,0,0,0-17.62,6.6q-7.28,6.6-8.33,18.3h51.9A25.2,25.2,0,0,0,2826.27,430.12Z"/><path d="M2885.75,410.85q6.67-3.9,16.27-3.9v14.1h-3.6q-23,0-23,24.9v44.7h-13.65v-82.2h13.65V421.8A26.2,26.2,0,0,1,2885.75,410.85Z"/><path d="M1978,596.4a32.49,32.49,0,0,0-12.6-14.17,36.18,36.18,0,0,0-19.2-5,39,39,0,0,0-19.72,5,35.53,35.53,0,0,0-13.8,14.39,45.23,45.23,0,0,0-5,21.68,44.75,44.75,0,0,0,5,21.6,35.63,35.63,0,0,0,13.8,14.33,39,39,0,0,0,19.72,5q15.3,0,25.2-9.15T1983,625.35h-41.7v-11.1h56.25v10.5a51.85,51.85,0,0,1-8.1,23.62,49.89,49.89,0,0,1-18.15,17,50.76,50.76,0,0,1-25,6.23,52.75,52.75,0,0,1-26.55-6.82,50.11,50.11,0,0,1-19-19,57.62,57.62,0,0,1,0-55,50,50,0,0,1,19-19,52.76,52.76,0,0,1,26.55-6.83q16.65,0,29.48,8.25a47.2,47.2,0,0,1,18.67,23.25Z"/><path d="M2030.46,666.75a37.39,37.39,0,0,1-14.7-14.93,45.74,45.74,0,0,1-5.33-22.42,44.46,44.46,0,0,1,5.48-22.28,37.84,37.84,0,0,1,14.92-14.85,45.85,45.85,0,0,1,42.3,0,38,38,0,0,1,14.93,14.78q5.47,9.6,5.47,22.35a43.78,43.78,0,0,1-5.62,22.42,39,39,0,0,1-15.23,14.93,43.66,43.66,0,0,1-21.3,5.25A42.07,42.07,0,0,1,2030.46,666.75Zm34.72-10.2a26.26,26.26,0,0,0,10.43-10.35q4-6.9,4-16.8t-3.9-16.8a25.55,25.55,0,0,0-10.2-10.28,29.47,29.47,0,0,0-27.37,0,24.77,24.77,0,0,0-10,10.28q-3.75,6.9-3.75,16.8,0,10.05,3.68,17a24.4,24.4,0,0,0,9.82,10.27,27.6,27.6,0,0,0,13.5,3.38A28.82,28.82,0,0,0,2065.18,656.55Z"/><path d="M2142.13,658.05l25.5-69.6h14.55l-32.25,82.2H2134l-32.25-82.2h14.7Z"/><path d="M2270.23,634.65h-65.7q.75,12.15,8.33,19a26.42,26.42,0,0,0,18.37,6.83q8.85,0,14.78-4.13a21.77,21.77,0,0,0,8.32-11H2269a35.32,35.32,0,0,1-13.2,19.27q-9.9,7.42-24.6,7.43a41.53,41.53,0,0,1-20.92-5.25,37.19,37.19,0,0,1-14.48-14.93,46.27,46.27,0,0,1-5.25-22.42q0-12.75,5.1-22.35A35.89,35.89,0,0,1,2210,592.27a42.62,42.62,0,0,1,21.22-5.17,41.25,41.25,0,0,1,20.7,5.1,35.34,35.34,0,0,1,13.88,14,41.37,41.37,0,0,1,4.87,20.17A80.33,80.33,0,0,1,2270.23,634.65Zm-17.1-24.53a22.42,22.42,0,0,0-9.37-8.55,29.26,29.26,0,0,0-13.13-2.92,25.29,25.29,0,0,0-17.62,6.6q-7.28,6.6-8.33,18.3h51.9A25.2,25.2,0,0,0,2253.13,610.12Z"/><path d="M2312.61,590.85q6.66-3.9,16.27-3.9v14.1h-3.6q-23,0-23,24.9v44.7h-13.65v-82.2h13.65V601.8A26.2,26.2,0,0,1,2312.61,590.85Z"/><path d="M2409,596q9.3,9.09,9.3,26.18v48.45h-13.5v-46.5q0-12.3-6.15-18.83t-16.8-6.52q-10.8,0-17.18,6.75t-6.37,19.65v45.45h-13.65v-82.2h13.65v11.7a27.09,27.09,0,0,1,11-9.75,34.22,34.22,0,0,1,15.38-3.45Q2399.68,587,2409,596Z"/><path d="M2556.58,590.93a28.67,28.67,0,0,1,11.85,11.92q4.35,7.95,4.35,19.35v48.45h-13.5v-46.5q0-12.3-6.08-18.83t-16.42-6.52q-10.65,0-17,6.82t-6.3,19.73v45.3H2500v-46.5q0-12.3-6.08-18.83t-16.42-6.52q-10.65,0-17,6.82t-6.3,19.73v45.3h-13.65v-82.2h13.65V600.3a27,27,0,0,1,10.87-9.9,33,33,0,0,1,15.08-3.45,35.57,35.57,0,0,1,18.3,4.65,28.37,28.37,0,0,1,11.85,13.65,27,27,0,0,1,11.4-13.5,33.58,33.58,0,0,1,17.7-4.8A36,36,0,0,1,2556.58,590.93Z"/><path d="M2669.68,634.65H2604q.75,12.15,8.32,19a26.45,26.45,0,0,0,18.38,6.83q8.85,0,14.77-4.13a21.79,21.79,0,0,0,8.33-11h14.7a35.32,35.32,0,0,1-13.2,19.27q-9.9,7.42-24.6,7.43a41.57,41.57,0,0,1-20.93-5.25,37.16,37.16,0,0,1-14.47-14.93A46.27,46.27,0,0,1,2590,629.4q0-12.75,5.1-22.35a35.86,35.86,0,0,1,14.32-14.78,42.66,42.66,0,0,1,21.23-5.17,41.25,41.25,0,0,1,20.7,5.1,35.31,35.31,0,0,1,13.87,14,41.37,41.37,0,0,1,4.88,20.17A80.33,80.33,0,0,1,2669.68,634.65Zm-17.1-24.53a22.45,22.45,0,0,0-9.38-8.55,29.22,29.22,0,0,0-13.12-2.92,25.31,25.31,0,0,0-17.63,6.6q-7.27,6.6-8.32,18.3H2656A25.2,25.2,0,0,0,2652.58,610.12Z"/><path d="M2752.48,596q9.3,9.09,9.3,26.18v48.45h-13.5v-46.5q0-12.3-6.15-18.83t-16.8-6.52q-10.8,0-17.18,6.75t-6.37,19.65v45.45h-13.65v-82.2h13.65v11.7a27.09,27.09,0,0,1,11-9.75,34.22,34.22,0,0,1,15.38-3.45Q2743.18,587,2752.48,596Z"/><path d="M2800.78,599.7v48.45c0,4,.85,6.83,2.55,8.47s4.65,2.48,8.85,2.48h10.05v11.55h-12.3q-11.4,0-17.1-5.25t-5.7-17.25V599.7h-10.65V588.45h10.65v-20.7h13.65v20.7h21.45V599.7Z"/><path d="M2893.4,668a30.7,30.7,0,0,1-12.82-10.2,26.09,26.09,0,0,1-4.8-15.07h14.55a19.12,19.12,0,0,0,6.07,12.37q5.32,5,15.53,5,9.75,0,15.37-4.88a15.8,15.8,0,0,0,5.63-12.52,14.22,14.22,0,0,0-3.3-9.75,21.08,21.08,0,0,0-8.25-5.7,128.91,128.91,0,0,0-13.35-4.2,117.67,117.67,0,0,1-16.58-5.4,26.68,26.68,0,0,1-10.65-8.47q-4.43-5.78-4.42-15.53a26.9,26.9,0,0,1,4.35-15.15,28.32,28.32,0,0,1,12.22-10.2,43.07,43.07,0,0,1,18.08-3.6q14.7,0,24.07,7.35a27.16,27.16,0,0,1,10.58,19.5h-15q-.75-6-6.3-10.58t-14.7-4.57q-8.55,0-13.95,4.42t-5.4,12.38a13.41,13.41,0,0,0,3.22,9.3,20.67,20.67,0,0,0,7.95,5.47,139,139,0,0,0,13.28,4.28,124.6,124.6,0,0,1,16.65,5.63,27.77,27.77,0,0,1,10.8,8.55q4.5,5.78,4.5,15.67a27.53,27.53,0,0,1-4.05,14.4,29.77,29.77,0,0,1-12,11,39.6,39.6,0,0,1-18.75,4.2A44.58,44.58,0,0,1,2893.4,668Z"/><path d="M2981.75,666.75a37.39,37.39,0,0,1-14.7-14.93,45.74,45.74,0,0,1-5.32-22.42,44.46,44.46,0,0,1,5.47-22.28,37.87,37.87,0,0,1,14.93-14.85,45.85,45.85,0,0,1,42.3,0,37.93,37.93,0,0,1,14.92,14.78,44.33,44.33,0,0,1,5.48,22.35,43.79,43.79,0,0,1-5.63,22.42A39.05,39.05,0,0,1,3024,666.75a43.66,43.66,0,0,1-21.3,5.25A42.08,42.08,0,0,1,2981.75,666.75Zm34.73-10.2a26.3,26.3,0,0,0,10.42-10.35q4-6.9,4-16.8t-3.9-16.8a25.61,25.61,0,0,0-10.2-10.28,29.49,29.49,0,0,0-27.38,0,24.69,24.69,0,0,0-10,10.28q-3.75,6.9-3.75,16.8,0,10.05,3.67,17a24.42,24.42,0,0,0,9.83,10.27,27.6,27.6,0,0,0,13.5,3.38A28.82,28.82,0,0,0,3016.48,656.55Z"/><path d="M3076.48,559.65v111h-13.65v-111Z"/><path d="M3172.62,588.45v82.2H3159V658.5a26.48,26.48,0,0,1-10.87,9.82,33.62,33.62,0,0,1-15.38,3.53,36.76,36.76,0,0,1-17.25-4A28.82,28.82,0,0,1,3103.4,656q-4.43-8-4.43-19.35V588.45h13.5V634.8q0,12.15,6.15,18.68t16.8,6.52q10.95,0,17.25-6.75t6.3-19.65V588.45Z"/><path d="M3212.37,599.7v48.45c0,4,.85,6.83,2.55,8.47s4.66,2.48,8.85,2.48h10.06v11.55h-12.31q-11.4,0-17.1-5.25t-5.7-17.25V599.7h-10.64V588.45h10.64v-20.7h13.65v20.7h21.46V599.7Z"/><path d="M3250.77,572.4a9.3,9.3,0,0,1,6.6-15.9,8.57,8.57,0,0,1,6.38,2.7,9.62,9.62,0,0,1,0,13.2,8.57,8.57,0,0,1-6.38,2.7A9,9,0,0,1,3250.77,572.4Zm13.2,16.05v82.2h-13.65v-82.2Z"/><path d="M3302.15,666.75a37.39,37.39,0,0,1-14.7-14.93,45.74,45.74,0,0,1-5.33-22.42,44.46,44.46,0,0,1,5.48-22.28,37.84,37.84,0,0,1,14.92-14.85,45.85,45.85,0,0,1,42.3,0,38,38,0,0,1,14.93,14.78q5.48,9.6,5.47,22.35a43.78,43.78,0,0,1-5.62,22.42,39,39,0,0,1-15.23,14.93,43.66,43.66,0,0,1-21.3,5.25A42.07,42.07,0,0,1,3302.15,666.75Zm34.72-10.2a26.26,26.26,0,0,0,10.43-10.35q4-6.9,4-16.8t-3.9-16.8a25.55,25.55,0,0,0-10.2-10.28,29.47,29.47,0,0,0-27.37,0,24.77,24.77,0,0,0-10,10.28q-3.75,6.9-3.75,16.8,0,10.05,3.68,17a24.4,24.4,0,0,0,9.82,10.27,27.6,27.6,0,0,0,13.5,3.38A28.82,28.82,0,0,0,3336.87,656.55Z"/><path d="M3447.57,596q9.3,9.09,9.3,26.18v48.45h-13.5v-46.5q0-12.3-6.15-18.83t-16.8-6.52q-10.8,0-17.17,6.75t-6.38,19.65v45.45h-13.65v-82.2h13.65v11.7a27.11,27.11,0,0,1,11-9.75,34.18,34.18,0,0,1,15.37-3.45Q3438.27,587,3447.57,596Z"/><path d="M3491.37,668.77a28.43,28.43,0,0,1-11.85-9,23.91,23.91,0,0,1-4.8-13.27h14.1a13.84,13.84,0,0,0,5.78,10q5.18,3.9,13.57,3.9,7.8,0,12.3-3.45a10.54,10.54,0,0,0,4.5-8.7,8.6,8.6,0,0,0-4.8-8q-4.8-2.61-14.85-5.17a110.52,110.52,0,0,1-14.92-4.87,26.51,26.51,0,0,1-9.9-7.36q-4.12-4.86-4.13-12.82a19.44,19.44,0,0,1,3.75-11.55,25.41,25.41,0,0,1,10.65-8.32,38.32,38.32,0,0,1,15.75-3.08q13.65,0,22.05,6.9t9,18.9h-13.65a14.1,14.1,0,0,0-5.17-10.35q-4.73-3.9-12.68-3.9-7.35,0-11.7,3.15a9.73,9.73,0,0,0-4.35,8.25,9.06,9.06,0,0,0,2.63,6.68,19.32,19.32,0,0,0,6.6,4.2,113.76,113.76,0,0,0,11,3.52,118.65,118.65,0,0,1,14.4,4.73,25.19,25.19,0,0,1,9.53,7q4,4.65,4.12,12.15a20.8,20.8,0,0,1-3.75,12.15,25,25,0,0,1-10.57,8.48,38,38,0,0,1-15.68,3.07A42.52,42.52,0,0,1,3491.37,668.77Z"/></svg>